:SAMPLES-PER-SECOND 30
:FULLY-SPECIFIED
:DEGREES
321
root  -7.15139 40.4298 40.926 1.37403 -9.00055 0.48149
RightUpLeg  -4.66971 0.409551 1.09321
RightLeg  3.15976 0.0427468 -0.22976
RightFoot  -1.15902 -0.0756816 0.686451
RightToes  -5.82073e-011 -3.18055e-015 -2.98177e-016
Spine  0.0614573 0.313211 -2.2706
Spine1  11.5489 -0.0174922 1.52332
HEad  -18.3397 9.36495 0.91865
LeftShoulder1  -3.88251e-019 9.70628e-020 -3.87848e-018
LeftArm  -28.9171 68.056 -60.8844
LeftForeArm  -13.6805 -7.40557 -0.04775
LeftHand  -0.434071 0.893775 12.3429
RightShoulder  7.26141 10.1986 34.9109
RightArm  -0.966505 -50.61 15.8618
RightForeArm  4.06993 9.3716 -7.98539
RightHand  -0.382071 -2.46963 -14.401
LeftUpLeg  -3.42016 -5.5034 -6.23861
LeftLeg  3.02803 8.1529 3.3729
LeftFoot  -2.6648 -0.150245 1.56756
LeftToes  5.79026e-011 9.70705e-012 -3.73859e-011
322
root  -7.22869 40.4182 40.9291 1.28812 -8.16669 0.565904
RightUpLeg  -4.59367 0.106022 0.992528
RightLeg  3.5069 -0.565103 -0.158146
RightFoot  -1.48463 -0.0561134 0.514304
RightToes  -5.82073e-011 -3.18055e-015 -2.98177e-016
Spine  -0.0744719 -0.0528629 -3.04677
Spine1  11.3216 -0.660798 2.56518
HEad  -17.5887 8.55919 0.844905
LeftShoulder1  -3.88251e-019 9.70628e-020 -3.87848e-018
LeftArm  -30.7956 64.958 -64.916
LeftForeArm  -11.8673 -8.93314 -0.500299
LeftHand  -0.524712 0.180453 12.7394
RightShoulder  7.33442 10.2412 35.1907
RightArm  -5.01446 -47.7931 21.0882
RightForeArm  3.20204 7.10963 -8.25876
RightHand  -0.290765 -3.3067 -15.0443
LeftUpLeg  -3.48967 -5.56376 -6.23154
LeftLeg  3.21194 7.43389 3.44935
LeftFoot  -2.71944 -0.141079 1.45514
LeftToes  5.79026e-011 9.70705e-012 -3.73859e-011
323
root  -7.2918 40.3868 40.9104 1.04662 -7.29287 0.646239
RightUpLeg  -4.63841 -0.128306 0.937945
RightLeg  4.33794 -1.13015 -0.374996
RightFoot  -1.96522 -0.0424522 0.413905
RightToes  -5.82073e-011 -3.18055e-015 -2.98177e-016
Spine  0.124256 -0.16547 -3.20413
Spine1  10.938 -0.865725 2.99295
HEad  -17.2391 7.00427 0.894236
LeftShoulder1  -3.88251e-019 9.70628e-020 -3.87848e-018
LeftArm  -31.2071 60.5552 -67.9937
LeftForeArm  -9.08729 -10.025 -1.24197
LeftHand  -0.652843 -0.804769 13.1943
RightShoulder  7.46981 10.3415 35.6588
RightArm  -6.44277 -45.4253 24.5319
RightForeArm  3.89726 7.42486 -8.24717
RightHand  -0.401762 -2.33388 -14.6068
LeftUpLeg  -3.8008 -5.71305 -6.27041
LeftLeg  4.11234 6.76444 3.79501
LeftFoot  -2.9967 -0.139713 1.44284
LeftToes  5.79026e-011 9.70705e-012 -3.73859e-011
324
root  -7.34661 40.3545 40.8919 0.629228 -6.66603 0.687525
RightUpLeg  -4.54579 -0.187589 0.988243
RightLeg  5.15177 -1.57997 -0.760574
RightFoot  -2.36255 -0.0506093 0.533584
RightToes  -5.82073e-011 -3.18055e-015 -2.98177e-016
Spine  0.238317 0.0303874 -2.55023
Spine1  10.8571 -0.504325 2.48481
HEad  -16.8569 5.06566 1.34351
LeftShoulder1  -3.88251e-019 9.70628e-020 -3.87848e-018
LeftArm  -30.3338 55.3595 -70.3261
LeftForeArm  -5.97652 -11.394 -2.08755
LeftHand  -0.75512 -1.72897 13.1927
RightShoulder  7.51181 10.3906 35.7621
RightArm  -5.34448 -43.992 26.8207
RightForeArm  5.76357 10.5566 -7.87664
RightHand  -0.633161 -0.339752 -14.1569
LeftUpLeg  -3.91145 -5.86984 -6.28347
LeftLeg  5.06285 6.23982 4.14643
LeftFoot  -3.3498 -0.130222 1.35749
LeftToes  5.79026e-011 9.70705e-012 -3.73859e-011
325
root  -7.39196 40.3253 40.8862 0.130166 -6.32219 0.69887
RightUpLeg  -4.30153 -0.269521 1.03007
RightLeg  5.80899 -1.84417 -1.04073
RightFoot  -2.76016 -0.0643897 0.720254
RightToes  -5.82073e-011 -3.18055e-015 -2.98177e-016
Spine  0.303789 0.278433 -1.46906
Spine1  10.881 0.0698526 1.35062
HEad  -15.9328 3.43053 2.10893
LeftShoulder1  -3.88251e-019 9.70628e-020 -3.87848e-018
LeftArm  -28.8408 50.482 -72.2537
LeftForeArm  -2.72324 -13.8961 -2.7407
LeftHand  -0.782376 -2.49116 12.3077
RightShoulder  7.43905 10.3732 35.4309
RightArm  -0.50719 -43.2159 28.4434
RightForeArm  6.45008 15.6565 -8.14324
RightHand  -0.910795 1.64184 -14.7611
LeftUpLeg  -3.77425 -5.98 -6.27092
LeftLeg  5.81557 5.93969 4.41466
LeftFoot  -3.6901 -0.110913 1.17555
LeftToes  5.79026e-011 9.70705e-012 -3.73859e-011
326
root  -7.42471 40.2962 40.8959 -0.306603 -6.11634 0.731025
RightUpLeg  -4.09368 -0.506202 0.957929
RightLeg  6.48292 -1.8134 -1.14648
RightFoot  -3.27284 -0.06373 0.770908
RightToes  -5.82073e-011 -3.18055e-015 -2.98177e-016
Spine  0.45865 0.340093 -0.413844
Spine1  10.7567 0.480495 0.0645888
HEad  -14.6551 2.53088 2.76303
LeftShoulder1  -3.88251e-019 9.70628e-020 -3.87848e-018
LeftArm  -25.1545 46.5989 -73.8054
LeftForeArm  -1.40639 -18.0067 -2.60985
LeftHand  -0.772899 -3.26713 11.0567
RightShoulder  7.34452 10.3398 35.0227
RightArm  9.85203 -42.6708 29.4301
RightForeArm  2.60838 21.6712 -11.1916
RightHand  -1.19738 3.20788 -15.9555
LeftUpLeg  -3.58544 -6.04653 -6.29067
LeftLeg  6.4031 5.83094 4.60283
LeftFoot  -3.98259 -0.0975615 1.05714
LeftToes  5.79026e-011 9.70705e-012 -3.73859e-011
327
root  -7.44989 40.2687 40.9154 -0.627321 -6.04062 0.861876
RightUpLeg  -4.08656 -0.784749 0.784065
RightLeg  7.29234 -1.49332 -1.28259
RightFoot  -3.82571 -0.056644 0.755639
RightToes  -5.82073e-011 -3.18055e-015 -2.98177e-016
Spine  0.508116 0.276447 0.408184
Spine1  10.809 0.729023 -1.12271
HEad  -13.7934 2.27683 3.0775
LeftShoulder1  -3.88251e-019 9.70628e-020 -3.87848e-018
LeftArm  -15.0018 43.6538 -75.064
LeftForeArm  -7.65083 -23.685 0.478067
LeftHand  -0.796693 -3.98871 10.4996
RightShoulder  7.26613 10.3047 34.6986
RightArm  17.6036 -42.2887 29.4516
RightForeArm  0.495528 28.8893 -15.6128
RightHand  -1.4293 4.41211 -16.7375
LeftUpLeg  -3.39342 -6.06248 -6.39908
LeftLeg  6.77284 5.79228 4.66728
LeftFoot  -4.22983 -0.0933486 1.02992
LeftToes  5.79026e-011 9.70705e-012 -3.73859e-011
328
root  -7.47636 40.2473 40.9374 -0.854723 -6.28623 1.14293
RightUpLeg  -4.31822 -1.03712 0.555363
RightLeg  8.15492 -0.894649 -1.58049
RightFoot  -4.3213 -0.0569435 0.824989
RightToes  -5.82073e-011 -3.18055e-015 -2.98177e-016
Spine  0.240211 0.283251 0.858648
Spine1  11.3679 0.981124 -2.00986
HEad  -13.716 2.41129 3.12419
LeftShoulder1  -3.88251e-019 9.70628e-020 -3.87848e-018
LeftArm  -4.71477 41.7064 -75.8135
LeftForeArm  -16.0758 -30.2272 5.91039
LeftHand  -0.861024 -4.2495 11.0244
RightShoulder  7.14935 10.2419 34.2347
RightArm  21.4363 -42.2923 28.9746
RightForeArm  -0.660567 36.8714 -20.4876
RightHand  -1.59745 5.41585 -16.986
LeftUpLeg  -3.11033 -6.02842 -6.63036
LeftLeg  6.81539 5.93981 4.59699
LeftFoot  -4.38739 -0.0864183 0.963529
LeftToes  5.79026e-011 9.70705e-012 -3.73859e-011
